<svg width="120" height="40" viewBox="0 0 120 40" fill="none" xmlns="http://www.w3.org/2000/svg">
  <g>
    <!-- Shopping Bag -->
    <path d="M12 8C12 6.93913 12.4214 5.92172 13.1716 5.17157C13.9217 4.42143 14.9391 4 16 4C17.0609 4 18.0783 4.42143 18.8284 5.17157C19.5786 5.92172 20 6.93913 20 8V10H12V8Z" fill="#4CBEB6"/>
    <path d="M10 10V8C10 6.4087 10.6321 4.88258 11.7574 3.75736C12.8826 2.63214 14.4087 2 16 2C17.5913 2 19.1174 2.63214 20.2426 3.75736C21.3679 4.88258 22 6.4087 22 8V10H24C24.5304 10 25.0391 10.2107 25.4142 10.5858C25.7893 10.9609 26 11.4696 26 12V24C26 24.5304 25.7893 25.0391 25.4142 25.4142C25.0391 25.7893 24.5304 26 24 26H8C7.46957 26 6.96086 25.7893 6.58579 25.4142C6.21071 25.0391 6 24.5304 6 24V12C6 11.4696 6.21071 10.9609 6.58579 10.5858C6.96086 10.2107 7.46957 10 8 10H10Z" fill="#4CBEB6"/>
    <!-- Heart -->
    <path d="M16 20C16 20 13 17 11 17C9 17 8 19 8 20C8 22 10 23 16 27C22 23 24 22 24 20C24 19 23 17 21 17C19 17 16 20 16 20Z" fill="#FFF3F1"/>
  </g>
  <!-- Text -->
  <text x="35" y="22" font-family="Playfair Display, serif" font-size="20" font-weight="700" fill="#1A2C34">Shop2Give</text>
</svg>